<svg width="75" height="80" viewBox="0 0 75 80" fill="none" xmlns="http://www.w3.org/2000/svg">
<mask id="path-1-inside-1" fill="white">
<path d="M34.0333 5.14282C35.6113 2.72124 39.1579 2.72124 40.7359 5.14282L71.3151 52.0694C73.1924 54.9503 72.2693 58.8165 69.2929 60.5385L41.391 76.682C38.9125 78.116 35.8567 78.116 33.3782 76.682L5.47624 60.5385C2.4999 58.8165 1.57681 54.9503 3.45413 52.0694L34.0333 5.14282Z"/>
</mask>
<path d="M34.0333 5.14282C35.6113 2.72124 39.1579 2.72124 40.7359 5.14282L71.3151 52.0694C73.1924 54.9503 72.2693 58.8165 69.2929 60.5385L41.391 76.682C38.9125 78.116 35.8567 78.116 33.3782 76.682L5.47624 60.5385C2.4999 58.8165 1.57681 54.9503 3.45413 52.0694L34.0333 5.14282Z" transform="translate(0 0.522461)" stroke="#8FA6B2" stroke-width="4" stroke-dasharray="8 8" mask="url(#path-1-inside-1)"/>
<path d="M0 0V59.9815" transform="translate(37.5586 10.8115)" stroke="#8FA6B2" stroke-width="2" stroke-dasharray="8 8"/>
</svg>
